<svg width="80" height="32" xmlns="http://www.w3.org/2000/svg" xmlns:xlink="http://www.w3.org/1999/xlink"><defs><path d="M61.05 3.316v8.192h-1.13l-.205-.661h-.025c-.235.291-.52.506-.856.644-.336.137-.73.206-1.184.206a2.728 2.728 0 01-2.016-.85c-.508-.516-.785-1.152-.831-1.909l-.007-.23v-.225c0-.898.277-1.632.832-2.203.554-.571 1.269-.857 2.143-.857.405 0 .751.053 1.039.16.23.085.435.206.616.364l.13.126h.025V3.316h1.47zM22.55 5.732V9.11c0 .449.099.787.297 1.016.199.228.492.342.881.342s.682-.114.88-.342c.17-.196.268-.473.292-.83l.006-.186V5.732h1.457v3.472c0 .756-.243 1.361-.728 1.814-.486.453-1.122.68-1.907.68-.785 0-1.42-.227-1.907-.68-.437-.408-.677-.938-.721-1.591l-.007-.223V5.732h1.457zm12.227-.309c.89 0 1.635.282 2.235.845.549.516.846 1.173.892 1.97l.006.222v.212c0 .89-.3 1.617-.898 2.18-.6.564-1.345.845-2.235.845-.89 0-1.63-.28-2.216-.839-.539-.512-.83-1.167-.875-1.965l-.006-.22V8.46c0-.898.293-1.629.88-2.192.587-.563 1.326-.845 2.217-.845zm30.275 0c.85 0 1.546.276 2.088.827.543.552.814 1.269.814 2.15 0 .087-.002.182-.006.284l-.008.157-.01.162h-4.397c.065.48.235.855.51 1.123.276.268.632.401 1.07.401.347 0 .626-.058.837-.177.114-.064.214-.148.302-.251l.083-.11h1.488a2.28 2.28 0 01-.914 1.212c-.493.331-1.109.496-1.845.496-.867 0-1.59-.287-2.168-.862-.53-.527-.818-1.18-.862-1.959l-.006-.215v-.19c0-.874.289-1.6.868-2.18.579-.578 1.297-.868 2.156-.868zm-14.49 0c.396 0 .759.07 1.086.213.263.113.51.275.745.484l.172.166h.025l.243-.686H53.9v5.908H52.76l-.23-.709h-.025c-.21.292-.486.512-.826.662-.34.15-.729.225-1.166.225-.793 0-1.463-.28-2.01-.84-.497-.508-.768-1.146-.813-1.915l-.007-.235v-.213c0-.882.271-1.612.814-2.192.542-.578 1.23-.868 2.065-.868zM29.403 4.108v1.335h1.542v1.111h-1.542V9.76c0 .22.054.386.164.496.109.11.277.165.504.165a1.407 1.407 0 00.705-.186l.145-.086h.206v1.17a2.476 2.476 0 01-.595.207 2.848 2.848 0 01-.631.089c-.656 0-1.15-.166-1.482-.497-.295-.294-.46-.719-.492-1.274l-.006-.214V6.554h-.826v-.65c.389-.18.713-.41.972-.685.216-.23.412-.525.588-.886l.104-.225h.644zm13.928-.437v1.288h-2.234v6.55h-1.53v-6.55h-2.332V3.67h6.096zm3.334 1.882a3.43 3.43 0 01.429.028l.057.007v1.407h-.547c-.542 0-.933.116-1.172.348-.212.207-.33.583-.354 1.129l-.004.212v2.824h-1.47V5.6h1.045l.315 1.135h.025c.08-.363.275-.65.583-.863.307-.213.672-.319 1.093-.319zm25.362 0a3.428 3.428 0 01.43.028l.056.007v1.407h-.547c-.542 0-.933.116-1.171.348-.213.207-.33.583-.354 1.129l-.005.212v2.824h-1.47V5.6h1.045l.316 1.135h.024c.081-.363.275-.65.583-.863.308-.213.672-.319 1.093-.319zM17.51 3.828l3.109 7.491v.19h-1.567l-.607-1.56-.13-.334H15.04l-.13.335-.606 1.558h-1.506v-.189l3.109-7.491h1.603zm-6.032 4.49l-.72 1.736c-.342.792-1.084 1.364-1.956 1.444l-.176.009-7.137.001 1.324-3.19h8.665zm39.313-1.737c-.526 0-.935.177-1.226.532-.292.354-.437.835-.437 1.441 0 .607.145 1.086.437 1.436.291.35.7.526 1.226.526.518 0 .925-.176 1.22-.526.296-.35.444-.829.444-1.436 0-.606-.148-1.087-.443-1.441-.296-.355-.703-.532-1.22-.532zm7.15 0c-.526 0-.935.177-1.226.532-.292.354-.437.835-.437 1.441 0 .607.145 1.086.437 1.436.291.35.7.526 1.226.526.518 0 .925-.176 1.22-.526.296-.35.444-.829.444-1.436 0-.606-.148-1.087-.443-1.441-.296-.355-.703-.532-1.22-.532zm-23.153.024c-.51 0-.909.175-1.196.526-.288.35-.431.825-.431 1.423 0 .599.143 1.074.43 1.424.288.35.687.526 1.197.526s.91-.175 1.202-.526c.292-.35.438-.825.438-1.424 0-.598-.146-1.073-.438-1.423-.291-.35-.692-.526-1.202-.526zM16.696 5.293h-.024a4.66 4.66 0 01-.134.443c-.047.135-.12.328-.217.58l-.062.159-.718 1.85h2.277l-.709-1.85c-.178-.48-.285-.774-.322-.88a4.082 4.082 0 01-.09-.302zm48.403 1.3c-.405 0-.735.106-.99.319-.218.182-.382.446-.49.79l-.05.179h2.878c-.024-.402-.156-.717-.395-.945-.238-.229-.556-.343-.953-.343zM13.342 3.828l-1.323 3.19H3.353l.72-1.737c.366-.844 1.185-1.438 2.133-1.452l7.136-.001z" id="a"/></defs><g fill="none" fill-rule="evenodd"><rect fill="#1F8300" fill-rule="nonzero" width="80" height="32" rx="2"/><path d="M13.056 25.76c1.452 0 2.856-.708 3.516-1.596v-2.808h-3.588v1.308h2.112v1.128a3.19 3.19 0 01-1.944.66c-1.764 0-2.64-1.2-2.64-2.772 0-1.68.852-2.772 2.376-2.772 1.176 0 1.74.384 1.944 1.212h1.488V20c-.192-1.548-1.584-2.4-3.408-2.4C10.644 17.6 9 19.22 9 21.56v.252c0 2.244 1.62 3.948 4.056 3.948zm5.124-.18h1.452v-2.868c0-.96.132-1.716 1.512-1.716h.54v-1.428a3.232 3.232 0 00-.48-.036c-.768 0-1.488.42-1.656 1.2h-.024l-.312-1.152H18.18v6zm7.392.192c1.404 0 2.472-.66 2.784-1.932H26.94c-.24.528-.648.744-1.32.744-.924 0-1.44-.636-1.56-1.548h4.344l.023-.518.001-.094c0-1.824-1.212-3.024-2.868-3.024s-2.988 1.272-2.988 3.096v.192c0 1.824 1.344 3.084 3 3.084zm-1.476-3.876c.18-.78.624-1.308 1.512-1.308.864 0 1.284.576 1.332 1.308h-2.844zm8.244 3.864c.816 0 1.524-.276 1.968-.9h.024l.228.72h1.128v-6h-1.056l-.24.696h-.024c-.528-.564-1.152-.876-1.98-.876-1.68 0-2.844 1.356-2.844 3.108v.216c0 1.944 1.392 3.036 2.796 3.036zm.276-1.188c-1.128 0-1.644-.876-1.644-1.992s.516-2.004 1.644-2.004c1.116 0 1.644.888 1.644 2.004s-.528 1.992-1.644 1.992zm7.032 1.116c.312 0 .9-.132 1.212-.3V24.2h-.204c-.252.168-.516.276-.84.276-.36 0-.66-.132-.66-.672v-3.096h1.524V19.58h-1.524v-1.356h-.636c-.3.72-.708 1.38-1.644 1.824v.66h.816v2.964c0 1.392.708 2.016 1.956 2.016zm6 2.052v-2.652h.024c.348.384.852.672 1.788.672 1.728 0 2.916-1.308 2.916-3.108v-.228c0-1.896-1.404-3.036-2.82-3.036-.78 0-1.488.204-2.016.864h-.024l-.204-.672h-1.116v8.16h1.452zm1.62-3.156c-1.116 0-1.644-.888-1.644-2.004s.528-1.992 1.644-1.992c1.128 0 1.644.876 1.644 1.992s-.516 2.004-1.644 2.004zm4.536.996h1.452v-2.868c0-.96.132-1.716 1.512-1.716h.54v-1.428a3.232 3.232 0 00-.48-.036c-.768 0-1.488.42-1.656 1.2h-.024l-.312-1.152h-1.032v6zm6.108 0v-6h-1.464v6h1.464zm-.732-6.852c.528 0 .972-.3.972-.828v-.06c0-.54-.444-.84-.972-.84-.54 0-.972.3-.972.84v.06c0 .528.432.828.972.828zm5.1 7.044c1.416 0 2.604-.792 2.76-2.268v-.12h-1.308c-.132.828-.624 1.176-1.404 1.176-1.08 0-1.632-.852-1.632-1.968s.564-1.992 1.608-1.992c.816 0 1.26.396 1.428 1.188h1.308v-.12c-.18-1.488-1.32-2.268-2.796-2.268-1.752 0-3 1.344-3 3.096v.192c0 1.776 1.308 3.084 3.036 3.084zm6.78 0c1.404 0 2.472-.66 2.784-1.932h-1.416c-.24.528-.648.744-1.32.744-.924 0-1.44-.636-1.56-1.548h4.344l.023-.518.001-.094c0-1.824-1.212-3.024-2.868-3.024s-2.988 1.272-2.988 3.096v.192c0 1.824 1.344 3.084 3 3.084zm-1.476-3.876c.18-.78.624-1.308 1.512-1.308.864 0 1.284.576 1.332 1.308h-2.844z" fill="#FFF" fill-rule="nonzero"/><g transform="translate(3 2)"><path d="M0 0h74v16H0"/><mask id="b" fill="#fff"><use xlink:href="#a"/></mask><use fill="#313C53" xlink:href="#a"/><g mask="url(#b)" fill="#FFF"><path d="M0 0h74v16H0z"/></g></g></g></svg>